<?xml version="1.0" standalone="no"?><!DOCTYPE svg PUBLIC "-//W3C//DTD SVG 1.1//EN" "http://www.w3.org/Graphics/SVG/1.1/DTD/svg11.dtd"><svg t="1742498831145" class="icon" viewBox="0 0 1024 1024" version="1.1" xmlns="http://www.w3.org/2000/svg" p-id="880" xmlns:xlink="http://www.w3.org/1999/xlink" width="200" height="200"><path d="M834.986667 727.04l-85.205334-56.149333-71.04 118.698666-82.645333-24.192-72.789333 111.104 3.712 34.986667 395.690666-72.96-22.954666-247.210667z m-369.024-106.581333l63.488-8.704c10.282667 4.608 17.450667 6.4 29.738666 9.514666 19.2 4.992 41.386667 9.813333 74.282667-6.826666 7.68-3.754667 23.594667-18.346667 30.037333-26.666667l260.096-47.189333 26.538667 321.152-445.610667 80.298666z m483.2-115.712l-25.685334 4.906666L874.154667 0 33.664 97.493333l103.552 840.234667 98.389333-14.250667c-7.850667-11.221333-20.096-24.789333-40.96-42.197333-29.013333-24.064-18.773333-64.938667-1.664-90.752 22.613333-43.605333 139.093333-99.072 132.522667-168.789333-2.389333-25.344-6.4-58.368-29.952-80.981334-0.853333 9.386667 0.725333 18.432 0.725333 18.432s-9.685333-12.330667-14.506666-29.141333c-4.778667-6.4-8.533333-8.490667-13.610667-17.066667-3.626667 9.941333-3.114667 21.461333-3.114667 21.461334s-7.936-18.645333-9.216-34.432c-4.693333 7.082667-5.845333 20.48-5.845333 20.48s-10.282667-29.44-7.936-45.312c-4.693333-13.781333-18.602667-41.173333-14.634667-103.424 25.6 17.962667 82.090667 13.696 104.106667-18.730667 7.296-10.709333 12.288-40.064-3.669333-97.834667-10.24-37.034667-35.626667-92.16-45.482667-113.109333l-1.194667 0.853333c5.205333 16.853333 15.957333 52.181333 20.053334 69.333334 12.501333 51.968 15.872 70.058667 9.984 94.037333-4.949333 20.821333-16.938667 34.474667-47.232 49.706667-30.293333 15.274667-70.528-21.930667-73.088-23.978667-29.44-23.466667-52.224-61.738667-54.784-80.341333-2.645333-20.352 11.733333-32.554667 18.986666-49.194667-10.368 2.986667-21.930667 8.192-21.930666 8.192s13.781333-14.250667 30.805333-26.624c7.04-4.650667 11.178667-7.594667 18.602667-13.781333a416.512 416.512 0 0 0-19.456 0.128s17.92-9.685333 36.48-16.725334c-13.568-0.597333-26.581333-0.128-26.581334-0.128s39.978667-17.877333 71.594667-31.018666c21.717333-8.874667 42.922667-6.272 54.869333 10.965333 15.658667 22.613333 32.085333 34.858667 66.944 42.496 21.376-9.514667 27.861333-14.378667 54.784-21.717333 23.637333-26.026667 42.24-29.354667 42.24-29.354667s-9.216 8.448-11.690666 21.76c13.397333-10.624 28.16-19.413333 28.16-19.413333s-5.717333 6.997333-11.050667 18.176l1.28 1.834666c15.616-9.386667 34.005333-16.810667 34.005333-16.810666s-5.248 6.656-11.434666 15.274666c11.818667-0.085333 35.754667 0.512 45.056 1.578667 54.826667 1.194667 66.218667-58.624 87.253333-66.133333 26.368-9.386667 38.144-15.061333 83.072 29.013333 38.528 37.888 68.650667 105.685333 53.717333 120.874667-12.544 12.586667-37.290667-4.906667-64.682666-39.082667a147.882667 147.882667 0 0 1-30.549334-66.645333 65.408 65.408 0 0 0-21.205333-36.266667s9.813333 21.76 9.813333 40.96c0 10.496 1.28 49.706667 18.090667 71.68-1.664 3.242667-2.432 15.957333-4.266667 18.346667-19.541333-23.637333-61.568-40.533333-68.437333-45.525334 23.210667 18.986667 76.501333 62.634667 96.981333 104.490667 19.328 39.552 7.936 75.818667 17.749334 85.205333 2.773333 2.688 41.642667 51.072 49.066666 75.392 13.056 42.410667 0.810667 86.954667-16.256 114.56l-47.658666 7.424c-6.954667-1.92-11.648-2.901333-17.92-6.528 3.413333-6.101333 10.282667-21.333333 10.368-24.405333l-2.688-4.736c-14.848 20.992-39.68 41.386667-60.330667 53.12-27.008 15.317333-58.154667 12.970667-78.421333 6.656-57.514667-17.706667-111.914667-56.618667-125.013334-66.816 0 0-0.426667 8.149333 2.048 9.984 14.506667 16.341333 47.744 45.952 79.872 66.56l-68.48 7.552 32.384 252.074667c-14.378667 2.048-16.64 3.029333-32.298666 5.290666-13.866667-48.938667-40.362667-80.853333-69.290667-99.498666-25.557333-16.384-60.757333-20.053333-94.464-13.397334l-2.133333 2.517334a121.642667 121.642667 0 0 1 79.488 18.944c27.904 17.621333 50.389333 63.189333 58.666666 90.624 10.581333 35.072 17.92 72.533333-10.581333 112.298666-20.309333 28.245333-79.530667 43.861333-127.402667 10.112 12.8 20.522667 30.08 37.376 53.333334 40.533334 34.517333 4.693333 67.285333-1.28 89.856-24.490667 19.285333-19.797333 29.44-61.184 26.794666-104.789333l30.464-4.437334 11.008 78.250667 504.618667-60.757333zM642.133333 292.181333c-1.450667 3.2-3.626667 5.333333-0.298666 15.786667l0.170666 0.597333 0.554667 1.365334 1.365333 3.114666c5.973333 12.245333 12.586667 23.808 23.552 29.696 2.858667-0.469333 5.802667-0.810667 8.832-0.981333 10.325333-0.426667 16.853333 1.194667 20.992 3.413333 0.384-2.048 0.426667-5.077333 0.213334-9.472-0.768-15.530667 3.072-41.898667-26.709334-55.808-11.264-5.205333-27.050667-3.584-32.298666 2.901334a12.885333 12.885333 0 0 1 2.474666 0.554666c7.936 2.816 2.56 5.546667 1.152 8.832m83.541334 144.725334c-3.925333-2.133333-22.186667-1.28-35.029334 0.213333-24.490667 2.901333-50.901333 11.392-56.661333 15.872-10.538667 8.149333-5.76 22.314667 2.005333 28.16 21.802667 16.298667 40.96 27.221333 61.098667 24.533333 12.373333-1.621333 23.296-21.205333 31.061333-38.997333 5.290667-12.288 5.290667-25.514667-2.474666-29.781333m-216.618667-125.525334c6.912-6.570667-34.346667-15.146667-66.389333 6.656-23.637333 16.128-24.362667 50.645333-1.749334 70.229334 2.261333 1.962667 4.096 3.328 5.845334 4.437333a203.52 203.52 0 0 1 59.562666-17.578667c4.821333-5.333333 10.368-14.72 8.96-31.786666-1.877333-23.125333-19.413333-19.456-6.229333-31.957334" p-id="881" fill="#2c2c2c"></path></svg>